<svg width="18" height="18" viewBox="0 0 18 18" fill="none" xmlns="http://www.w3.org/2000/svg">
<path d="M8.22887 2.03135C8.57867 1.45011 9.42133 1.45011 9.77113 2.03135L11.519 4.93565C11.6446 5.14446 11.8496 5.29338 12.087 5.34837L15.3893 6.11318C16.0502 6.26624 16.3106 7.06767 15.8659 7.57995L13.6438 10.1397C13.4841 10.3238 13.4058 10.5647 13.4268 10.8075L13.7199 14.1845C13.7786 14.8603 13.0968 15.3556 12.4722 15.091L9.35108 13.7687C9.12668 13.6737 8.87332 13.6737 8.64892 13.7687L5.52779 15.091C4.90315 15.3556 4.22142 14.8603 4.28007 14.1845L4.57315 10.8075C4.59422 10.5647 4.51593 10.3238 4.35617 10.1397L2.13413 7.57995C1.68943 7.06767 1.94983 6.26624 2.61071 6.11318L5.91298 5.34837C6.1504 5.29338 6.35537 5.14446 6.48104 4.93565L8.22887 2.03135Z" fill="#E4A802" stroke="#E4A802" stroke-width="1.125"/>
</svg>
